<svg xmlns="http://www.w3.org/2000/svg" xmlns:xlink="http://www.w3.org/1999/xlink" width="1105" zoomAndPan="magnify" viewBox="0 0 828.75 767.999994" height="1024" preserveAspectRatio="xMidYMid meet" version="1.0"><defs><clipPath id="ee471b1b4b"><path d="M 84 55 L 751 55 L 751 710 L 84 710 Z M 84 55 " clip-rule="nonzero"/></clipPath><clipPath id="65825c9f43"><path d="M -346.917969 -60.742188 L 859.125 -377.207031 L 1175.589844 828.839844 L -30.453125 1145.304688 Z M -346.917969 -60.742188 " clip-rule="nonzero"/></clipPath><clipPath id="148d706f24"><path d="M -346.917969 -60.742188 L 859.125 -377.207031 L 1175.589844 828.839844 L -30.453125 1145.304688 Z M -346.917969 -60.742188 " clip-rule="nonzero"/></clipPath><clipPath id="6083719afc"><path d="M 212 137 L 520 137 L 520 453 L 212 453 Z M 212 137 " clip-rule="nonzero"/></clipPath><clipPath id="16ede654f6"><path d="M -346.917969 -60.742188 L 859.125 -377.207031 L 1175.589844 828.839844 L -30.453125 1145.304688 Z M -346.917969 -60.742188 " clip-rule="nonzero"/></clipPath><clipPath id="4bd3f1a010"><path d="M -346.917969 -60.742188 L 859.125 -377.207031 L 1175.589844 828.839844 L -30.453125 1145.304688 Z M -346.917969 -60.742188 " clip-rule="nonzero"/></clipPath><clipPath id="5a5442bf40"><path d="M 120 116 L 639 116 L 639 551 L 120 551 Z M 120 116 " clip-rule="nonzero"/></clipPath><clipPath id="4fb8ae8fb9"><path d="M -346.917969 -60.742188 L 859.125 -377.207031 L 1175.589844 828.839844 L -30.453125 1145.304688 Z M -346.917969 -60.742188 " clip-rule="nonzero"/></clipPath><clipPath id="c9c11de22a"><path d="M -346.917969 -60.742188 L 859.125 -377.207031 L 1175.589844 828.839844 L -30.453125 1145.304688 Z M -346.917969 -60.742188 " clip-rule="nonzero"/></clipPath><clipPath id="23c529ac6e"><path d="M 312 200 L 444 200 L 444 289 L 312 289 Z M 312 200 " clip-rule="nonzero"/></clipPath><clipPath id="39df5427bb"><path d="M -346.917969 -60.742188 L 859.125 -377.207031 L 1175.589844 828.839844 L -30.453125 1145.304688 Z M -346.917969 -60.742188 " clip-rule="nonzero"/></clipPath><clipPath id="9c91e99239"><path d="M -346.917969 -60.742188 L 859.125 -377.207031 L 1175.589844 828.839844 L -30.453125 1145.304688 Z M -346.917969 -60.742188 " clip-rule="nonzero"/></clipPath><clipPath id="c278e83a94"><path d="M 84 55 L 733 55 L 733 672 L 84 672 Z M 84 55 " clip-rule="nonzero"/></clipPath><clipPath id="4138ca6c8a"><path d="M -346.917969 -60.742188 L 859.125 -377.207031 L 1175.589844 828.839844 L -30.453125 1145.304688 Z M -346.917969 -60.742188 " clip-rule="nonzero"/></clipPath><clipPath id="6814e0dc57"><path d="M -346.917969 -60.742188 L 859.125 -377.207031 L 1175.589844 828.839844 L -30.453125 1145.304688 Z M -346.917969 -60.742188 " clip-rule="nonzero"/></clipPath></defs><g clip-path="url(#ee471b1b4b)"><g clip-path="url(#65825c9f43)"><g clip-path="url(#148d706f24)"><path fill="#000000" d="M 219.261719 59.625 L 220.753906 59.242188 C 229.515625 57 238.070312 55.667969 247.132812 55.492188 L 248.992188 55.445312 C 257.640625 55.273438 266.230469 55.816406 274.851562 56.429688 C 281.625 56.90625 288.402344 57.207031 295.191406 57.335938 C 304.976562 57.527344 314.738281 58.015625 324.511719 58.546875 C 338.34375 59.304688 338.34375 59.304688 352.1875 59.746094 C 358.769531 59.886719 365.34375 60.1875 371.917969 60.476562 C 382.488281 60.9375 393.054688 61.28125 403.628906 61.550781 C 412.953125 61.796875 422.273438 62.164062 431.589844 62.640625 C 438.105469 62.972656 444.609375 63.246094 451.132812 63.347656 C 456.953125 63.449219 462.773438 63.664062 468.589844 63.886719 L 470.160156 63.945312 C 475.226562 64.136719 480.289062 64.34375 485.355469 64.5625 C 494.699219 64.976562 504.042969 65.292969 513.390625 65.566406 C 523.964844 65.878906 534.527344 66.222656 545.089844 66.847656 C 548.464844 67.039062 551.84375 67.199219 555.222656 67.328125 C 576.816406 68.183594 597.769531 69.644531 616.679688 81.1875 C 626.003906 87.554688 634.738281 94.839844 642.394531 103.132812 C 644.289062 105.09375 646.324219 106.816406 648.421875 108.550781 C 650.730469 110.46875 653 112.429688 655.265625 114.390625 L 657.894531 116.660156 L 659.199219 117.785156 C 661.164062 119.480469 663.128906 121.175781 665.097656 122.867188 L 667.0625 124.554688 C 668.128906 125.460938 669.222656 126.332031 670.34375 127.164062 L 671.503906 128.167969 L 672.03125 130.179688 L 673.371094 129.828125 C 675.039062 131.15625 676.667969 132.535156 678.257812 133.960938 L 679.824219 135.335938 C 681.011719 136.378906 682.195312 137.421875 683.378906 138.46875 C 686.914062 141.585938 690.460938 144.6875 694.011719 147.789062 L 697.867188 151.164062 C 702.132812 154.902344 706.410156 158.628906 710.71875 162.320312 C 715.109375 166.089844 719.375 169.984375 723.609375 173.929688 L 725.050781 175.246094 C 730.421875 180.199219 730.421875 180.199219 732.453125 183.066406 L 733.15625 185.746094 L 734.496094 185.394531 C 735.632812 187.09375 736.765625 188.796875 737.894531 190.5 L 738.855469 191.929688 C 742.972656 198.171875 745.378906 204.210938 747.199219 211.464844 L 747.796875 213.738281 C 751.957031 229.949219 750.132812 245.902344 747.652344 262.28125 C 747.195312 265.378906 746.800781 268.488281 746.417969 271.597656 L 746.203125 273.359375 C 745.433594 279.667969 744.683594 285.976562 743.949219 292.289062 C 743.273438 298.039062 742.574219 303.785156 741.851562 309.527344 C 741.542969 312 741.234375 314.472656 740.925781 316.945312 L 739.71875 326.65625 C 739.058594 331.960938 738.394531 337.265625 737.726562 342.570312 C 736.394531 353.148438 735.128906 363.730469 733.929688 374.324219 C 732.539062 386.535156 731.082031 398.734375 729.402344 410.90625 C 728.808594 415.21875 728.320312 419.53125 727.890625 423.859375 C 726.722656 435.59375 725.214844 447.285156 723.679688 458.976562 C 722.695312 466.5 721.769531 474.027344 720.902344 481.5625 C 718.125 505.710938 715.226562 529.855469 711.894531 553.933594 C 710.589844 563.410156 709.410156 572.902344 708.253906 582.398438 C 708.035156 584.171875 707.820312 585.945312 707.601562 587.71875 C 707.199219 590.96875 706.804688 594.214844 706.410156 597.460938 L 705.941406 601.285156 C 705.722656 603.066406 705.503906 604.84375 705.289062 606.625 L 705.089844 608.253906 C 704.71875 610.871094 704.71875 610.871094 705.039062 613.460938 L 703.695312 613.8125 L 703.707031 614.972656 C 703.609375 623.601562 701.859375 632.175781 699.976562 640.570312 C 699.78125 641.484375 699.589844 642.398438 699.398438 643.316406 L 699.023438 645.117188 L 697.683594 645.46875 L 697.890625 648.992188 L 696.550781 649.34375 L 697.078125 651.355469 L 695.914062 652.375 L 695.769531 654.5625 C 694.980469 655.988281 694.15625 657.398438 693.300781 658.789062 L 692.171875 660.855469 C 684.730469 674.253906 674.101562 686.1875 661.125 694.445312 C 653.347656 699.035156 645.339844 701.890625 636.609375 704.074219 C 634.773438 704.535156 632.941406 705.023438 631.109375 705.511719 C 614.785156 709.78125 599.03125 709.617188 582.320312 708.472656 C 580.617188 708.359375 578.914062 708.246094 577.210938 708.136719 C 572.132812 707.804688 567.101562 707.40625 562.058594 706.722656 C 559.441406 706.417969 556.828125 706.378906 554.195312 706.34375 C 550.375 706.296875 546.769531 705.96875 542.980469 705.394531 C 540.4375 705.304688 537.90625 705.296875 535.363281 705.289062 C 532.917969 705.175781 530.738281 704.722656 528.351562 704.222656 C 526.683594 704.144531 525.019531 704.105469 523.351562 704.101562 C 519.828125 704.058594 516.535156 703.765625 513.050781 703.222656 C 511.484375 703.144531 509.914062 703.078125 508.34375 703.027344 C 505.863281 702.941406 503.527344 702.8125 501.070312 702.429688 C 497.675781 701.941406 494.328125 701.949219 490.902344 701.898438 C 488.003906 701.820312 485.152344 701.578125 482.269531 701.277344 C 480.085938 701.066406 477.90625 700.929688 475.714844 700.800781 C 473.421875 700.660156 471.230469 700.46875 468.957031 700.113281 C 466.523438 699.765625 464.195312 699.632812 461.738281 699.546875 C 458.867188 699.449219 456.074219 699.273438 453.234375 698.867188 C 449.488281 698.351562 445.773438 698.292969 441.996094 698.257812 C 440.109375 698.214844 438.25 698.136719 436.367188 698.007812 L 434.617188 697.890625 L 432.851562 697.773438 L 429.699219 697.566406 L 406.625 696.0625 L 406.273438 694.722656 L 403.964844 695.117188 C 400.398438 695.585938 396.972656 695.328125 393.402344 695.039062 L 391.3125 694.882812 C 389.125 694.71875 386.933594 694.546875 384.746094 694.375 L 380.34375 694.039062 C 377.636719 693.835938 374.933594 693.628906 372.226562 693.417969 C 368.84375 693.15625 365.453125 692.929688 362.066406 692.714844 L 361.714844 691.375 L 359.308594 691.886719 C 354.320312 692.617188 349.339844 691.902344 344.359375 691.410156 C 342.398438 691.222656 340.4375 691.039062 338.472656 690.859375 L 337.027344 690.722656 C 331.480469 690.226562 325.921875 689.972656 320.347656 689.96875 L 318.351562 689.863281 L 317.332031 688.699219 L 314.652344 689.402344 L 314.300781 688.0625 L 311.882812 688.566406 C 306.988281 689.308594 302.066406 688.6875 297.167969 688.261719 L 296.816406 686.921875 L 294.394531 687.308594 C 291.480469 687.691406 288.671875 687.636719 285.746094 687.414062 C 285.230469 687.378906 284.714844 687.34375 284.179688 687.308594 C 282.5 687.195312 280.824219 687.074219 279.144531 686.949219 C 277.960938 686.867188 276.78125 686.789062 275.597656 686.707031 C 267.664062 686.152344 259.734375 685.5625 251.804688 684.945312 C 241.152344 684.125 230.488281 683.453125 219.824219 682.78125 L 219.472656 681.441406 L 218.320312 681.605469 C 211.765625 682.332031 205.316406 681.691406 198.769531 681.203125 C 195.398438 680.957031 192.023438 680.75 188.648438 680.535156 C 185.386719 680.328125 182.125 680.113281 178.863281 679.894531 C 176.492188 679.734375 174.125 679.578125 171.753906 679.429688 C 161.242188 678.753906 150.910156 677.953125 140.613281 675.636719 L 140.261719 674.296875 L 138.777344 674.503906 C 132.792969 674.507812 125.476562 669.984375 120.3125 667.214844 C 109.75 660.875 100.746094 652.515625 94.660156 641.730469 C 87.660156 628.859375 84.410156 613.066406 84.695312 598.527344 C 85.144531 587.476562 86.808594 576.636719 88.742188 565.757812 C 89.320312 562.484375 89.882812 559.203125 90.449219 555.921875 L 90.800781 553.871094 C 91.75 548.367188 92.648438 542.855469 93.539062 537.34375 C 94.945312 528.671875 96.429688 520.019531 97.960938 511.367188 C 99.152344 504.621094 100.335938 497.875 101.507812 491.125 L 101.839844 489.21875 C 103.476562 479.753906 104.914062 470.269531 106.320312 460.769531 C 107.617188 452.011719 108.96875 443.261719 110.320312 434.515625 L 111.121094 429.332031 C 113.082031 416.601562 115.046875 403.871094 117.261719 391.179688 C 119.402344 378.898438 121.332031 366.585938 123.054688 354.238281 C 125.105469 339.535156 127.3125 324.867188 129.933594 310.257812 C 131.039062 304.035156 131.9375 297.789062 132.816406 291.53125 C 133.71875 285.152344 134.785156 278.808594 135.9375 272.46875 C 136.71875 268.152344 137.378906 263.832031 137.96875 259.480469 C 138.398438 256.390625 138.914062 253.3125 139.441406 250.234375 L 140.109375 246.308594 L 140.449219 244.316406 C 140.761719 242.464844 141.074219 240.613281 141.378906 238.757812 C 142.683594 230.894531 144.054688 223.046875 145.457031 215.199219 C 146.382812 210.003906 147.289062 204.808594 148.179688 199.609375 C 149.761719 190.34375 151.402344 181.085938 153.0625 171.832031 L 153.546875 169.117188 C 163.761719 112.121094 163.761719 112.121094 169.683594 98.726562 L 170.546875 96.714844 C 175.820312 85.382812 185.21875 76.527344 195.222656 69.34375 C 202.703125 64.625 210.742188 61.78125 219.261719 59.625 " fill-opacity="1" fill-rule="nonzero"/></g></g></g><g clip-path="url(#6083719afc)"><g clip-path="url(#16ede654f6)"><g clip-path="url(#4bd3f1a010)"><path fill="#ffffff" d="M 271.609375 137.859375 C 274.535156 137.707031 277.433594 137.8125 280.359375 137.9375 C 281.6875 137.980469 283.011719 138.023438 284.339844 138.066406 C 285.292969 138.09375 286.242188 138.125 287.195312 138.15625 C 290.960938 138.277344 294.730469 138.363281 298.496094 138.417969 L 300.242188 138.445312 L 303.785156 138.496094 C 320.902344 138.769531 337.992188 139.359375 355.085938 140.324219 C 361.902344 140.699219 368.722656 140.9375 375.542969 141.152344 C 382.207031 141.363281 388.859375 141.675781 395.515625 142.019531 C 397.316406 142.109375 399.117188 142.199219 400.917969 142.289062 C 403.949219 142.441406 406.980469 142.601562 410.011719 142.769531 C 411.230469 142.832031 412.453125 142.894531 413.671875 142.957031 C 422.722656 143.40625 431.59375 144.367188 440.542969 145.808594 L 442.265625 146.082031 C 453.703125 147.9375 465.035156 150.761719 475.4375 155.984375 C 476.125 156.328125 476.816406 156.667969 477.527344 157.019531 C 479.605469 158.070312 481.664062 159.15625 483.71875 160.257812 L 485.445312 161.132812 C 494.003906 165.71875 501.101562 173.355469 506.203125 181.527344 C 515.46875 197.046875 519.449219 213.535156 519.773438 231.488281 C 519.445312 249.015625 513.597656 265.945312 505.453125 281.300781 L 504.710938 282.703125 C 496.46875 298.050781 484.878906 309.804688 470.277344 319.171875 L 468.082031 320.59375 C 464.347656 322.851562 460.601562 324.652344 456.574219 326.316406 L 454.203125 327.296875 C 452.632812 327.933594 451.054688 328.5625 449.472656 329.175781 C 446.335938 330.4375 444.03125 331.398438 441.695312 333.878906 C 440.882812 336.195312 440.882812 336.195312 441.597656 338.804688 C 442.730469 342.789062 444.546875 346.417969 446.371094 350.125 L 447.5 352.445312 C 448.511719 354.515625 449.523438 356.585938 450.539062 358.65625 C 451.605469 360.828125 452.664062 363.007812 453.726562 365.183594 C 455.457031 368.734375 457.1875 372.28125 458.925781 375.828125 C 461.1875 380.449219 463.441406 385.074219 465.6875 389.703125 C 472.144531 402.992188 478.65625 416.253906 485.308594 429.449219 L 486.019531 430.863281 C 486.644531 432.105469 487.269531 433.34375 487.894531 434.582031 C 491.90625 442.714844 491.90625 442.714844 492.433594 447.265625 L 491.679688 449.34375 C 488.851562 451.554688 485.9375 452.199219 482.417969 452.757812 C 479.148438 452.800781 475.9375 452.503906 472.6875 452.179688 C 471.757812 452.09375 470.828125 452.011719 469.898438 451.933594 C 467.96875 451.765625 466.042969 451.589844 464.113281 451.414062 C 460.449219 451.082031 456.777344 450.816406 453.105469 450.550781 C 449.609375 450.292969 446.117188 450.03125 442.621094 449.753906 C 440.894531 449.621094 439.164062 449.488281 437.433594 449.355469 C 434.9375 449.164062 432.441406 448.964844 429.945312 448.757812 C 429.203125 448.703125 428.464844 448.648438 427.699219 448.589844 C 423.535156 448.238281 419.269531 447.855469 415.472656 445.976562 C 412.308594 443.5625 410.933594 440.195312 409.253906 436.691406 L 408.273438 434.683594 C 407.179688 432.445312 406.097656 430.199219 405.015625 427.953125 L 403.242188 424.292969 C 400.671875 418.96875 398.105469 413.644531 395.550781 408.3125 C 394.460938 406.035156 393.367188 403.761719 392.273438 401.488281 L 387.734375 392.03125 C 385.800781 388 383.863281 383.96875 381.925781 379.941406 L 380.023438 375.992188 L 378.28125 372.371094 C 374.808594 365.15625 371.449219 357.890625 368.121094 350.605469 C 366.816406 348.605469 365.660156 347.652344 363.582031 346.453125 C 361.582031 345.945312 359.59375 345.75 357.542969 345.574219 L 355.773438 345.398438 C 349.535156 344.800781 343.28125 344.464844 337.019531 344.160156 C 328.640625 343.730469 320.292969 343.25 311.960938 342.203125 C 309.441406 341.917969 307.539062 341.832031 305.054688 342.421875 C 303.277344 343.570312 303.277344 343.570312 302.117188 345.570312 C 300.660156 349.1875 300.25 353.078125 299.71875 356.917969 C 299.445312 358.894531 299.15625 360.863281 298.863281 362.835938 L 298.398438 366.003906 C 297.511719 372.089844 296.523438 378.15625 295.53125 384.226562 L 295.25 385.921875 C 293.960938 393.808594 292.648438 401.6875 291.3125 409.5625 C 291.136719 410.585938 290.964844 411.609375 290.792969 412.632812 C 289.867188 418.113281 288.875 423.570312 287.769531 429.015625 L 287.476562 430.492188 C 286.765625 433.917969 285.730469 437.050781 284.371094 440.277344 C 282.457031 441.957031 280.3125 442.375 277.863281 442.980469 C 266.660156 444.761719 254.589844 443.085938 243.292969 442.5 L 240.183594 442.335938 L 238.648438 442.257812 C 234.359375 442.042969 230.070312 441.914062 225.773438 441.828125 C 221.636719 441.734375 217.613281 441.546875 213.96875 439.417969 C 212.808594 437.363281 212.261719 435.835938 212.101562 433.476562 C 212.425781 427.746094 213.199219 422.230469 214.289062 416.597656 L 215.054688 412.492188 C 215.234375 411.535156 215.414062 410.578125 215.59375 409.617188 C 216.574219 404.367188 217.46875 399.105469 218.363281 393.839844 C 219.609375 386.492188 220.871094 379.144531 222.261719 371.824219 C 223.070312 367.53125 223.769531 363.226562 224.441406 358.910156 C 224.875 356.140625 225.386719 353.386719 225.976562 350.644531 C 227.089844 345.441406 227.957031 340.195312 228.847656 334.949219 L 229.410156 331.652344 C 231.804688 317.601562 234.113281 303.535156 236.191406 289.433594 C 236.953125 284.277344 237.769531 279.132812 238.585938 273.988281 L 238.910156 271.957031 C 241.210938 257.480469 241.210938 257.480469 242.304688 250.6875 C 243.9375 240.484375 245.507812 230.277344 247.015625 220.058594 C 247.804688 214.734375 248.597656 209.414062 249.394531 204.089844 L 250.648438 195.703125 L 251.34375 191.054688 L 252.207031 185.269531 L 252.496094 183.34375 C 252.675781 182.140625 252.855469 180.941406 253.035156 179.742188 C 253.519531 176.527344 253.988281 173.308594 254.4375 170.085938 C 254.703125 168.207031 254.972656 166.324219 255.242188 164.441406 C 255.433594 163.09375 255.617188 161.746094 255.800781 160.394531 C 256.648438 154.507812 257.597656 148.550781 261.019531 143.550781 C 264.15625 139.761719 266.785156 138.644531 271.609375 137.859375 " fill-opacity="1" fill-rule="nonzero"/></g></g></g><g clip-path="url(#5a5442bf40)"><g clip-path="url(#4fb8ae8fb9)"><g clip-path="url(#c9c11de22a)"><path fill="#ffffff" d="M 630.546875 116.714844 L 631.886719 116.363281 C 635.359375 120.515625 636.519531 124.640625 637.585938 129.90625 C 637.9375 132.742188 638.0625 135.550781 638.117188 138.40625 L 638.171875 140.800781 C 638.363281 156.050781 636.164062 171.167969 634.011719 186.226562 C 633.242188 191.640625 632.539062 197.0625 631.835938 202.484375 L 631.640625 204.007812 C 630.902344 209.683594 630.183594 215.359375 629.488281 221.039062 C 628.25 231.179688 626.847656 241.292969 625.429688 251.410156 L 625.191406 253.109375 L 624.957031 254.78125 C 624.339844 259.1875 623.742188 263.59375 623.160156 268 L 622.914062 269.882812 C 622.4375 273.507812 621.96875 277.132812 621.5 280.757812 C 620.503906 288.460938 619.507812 296.152344 618.253906 303.816406 C 617.675781 307.398438 617.277344 310.980469 616.90625 314.585938 C 616.488281 318.113281 615.953125 321.617188 615.414062 325.128906 C 614.78125 329.28125 614.15625 333.425781 613.722656 337.609375 C 613.019531 344.402344 611.996094 351.152344 611.046875 357.910156 C 610.480469 361.980469 609.917969 366.054688 609.367188 370.125 L 607.21875 385.886719 C 605.039062 401.859375 602.863281 417.828125 600.789062 433.8125 C 600.472656 436.242188 600.15625 438.671875 599.835938 441.097656 C 598.851562 448.5625 597.875 456.023438 596.964844 463.496094 C 592.792969 497.550781 592.792969 497.550781 586.726562 509.167969 L 585.730469 511.21875 C 579.613281 523.582031 571.417969 532.410156 560.105469 540.183594 C 553.445312 544.5625 546.308594 547.511719 538.472656 549.039062 L 536.148438 549.5 C 520.535156 552.054688 504.203125 550.515625 488.507812 549.484375 L 483.226562 549.152344 C 478.941406 548.882812 474.65625 548.609375 470.371094 548.328125 C 467.679688 548.15625 464.992188 547.980469 462.300781 547.8125 C 456.996094 547.472656 451.691406 547.125 446.386719 546.769531 C 442.757812 546.53125 439.125 546.289062 435.492188 546.054688 L 433.882812 545.949219 L 427.375 545.527344 C 421.628906 545.152344 415.882812 544.777344 410.136719 544.394531 C 395.800781 543.4375 381.460938 542.546875 367.121094 541.71875 C 358.46875 541.226562 349.824219 540.695312 341.179688 540.121094 C 314.71875 538.367188 288.242188 536.855469 261.757812 535.46875 L 259.5625 535.351562 L 257.398438 535.238281 C 240.089844 534.328125 222.792969 533.316406 205.5 532.15625 L 203.914062 532.050781 L 202.359375 531.945312 C 199.460938 531.75 196.558594 531.578125 193.65625 531.421875 C 174.300781 530.375 156.558594 528.058594 140.023438 517.496094 C 133 512.472656 127.144531 505.316406 123.253906 497.59375 C 122.722656 495.753906 122.226562 493.929688 121.761719 492.078125 L 121.375 490.5625 C 121.058594 489.332031 120.75 488.105469 120.441406 486.875 L 122.449219 486.347656 L 123.890625 488.121094 C 131.417969 497.164062 139.882812 503.78125 150.847656 508.234375 C 162.59375 512.320312 175.710938 512.769531 188.046875 513.65625 C 190.113281 513.808594 192.179688 513.972656 194.25 514.136719 L 199.125 514.515625 L 201.335938 514.691406 C 213.773438 515.648438 226.214844 516.382812 238.679688 516.9375 C 240.933594 517.039062 243.183594 517.140625 245.4375 517.242188 C 248.484375 517.382812 251.527344 517.519531 254.574219 517.65625 C 260.214844 517.914062 265.855469 518.175781 271.496094 518.445312 C 273.015625 518.515625 274.539062 518.585938 276.058594 518.65625 C 282.445312 518.957031 288.828125 519.347656 295.207031 519.785156 L 299.996094 520.109375 C 302.226562 520.257812 304.453125 520.40625 306.683594 520.554688 C 307.8125 520.632812 308.941406 520.707031 310.066406 520.785156 C 316.421875 521.222656 322.746094 521.550781 329.117188 521.652344 C 333.28125 521.757812 337.429688 522.082031 341.582031 522.382812 C 352.792969 523.164062 364.011719 523.714844 375.234375 524.25 C 393.550781 525.125 411.851562 526.175781 430.152344 527.300781 C 436.71875 527.699219 443.28125 528.078125 449.851562 528.445312 C 465.09375 529.300781 480.332031 530.207031 495.546875 531.46875 C 500.261719 531.855469 504.988281 532.109375 509.71875 532.238281 C 510.605469 532.265625 511.492188 532.289062 512.40625 532.316406 C 522.960938 532.585938 533.398438 531.105469 542.980469 526.320312 C 553.253906 520.683594 560.449219 512.246094 566.523438 502.429688 C 572.890625 490.972656 574.734375 478.40625 576.207031 465.554688 C 576.695312 461.515625 577.375 457.507812 578.027344 453.492188 C 579.1875 446.34375 580.246094 439.191406 581.207031 432.011719 C 581.761719 427.9375 582.394531 423.878906 583.109375 419.828125 C 583.808594 415.710938 584.402344 411.574219 585.007812 407.445312 C 585.886719 401.460938 586.796875 395.488281 587.738281 389.515625 C 588.621094 383.886719 589.492188 378.257812 590.347656 372.625 L 591.171875 367.238281 C 592.023438 361.695312 592.847656 356.152344 593.609375 350.59375 C 594.300781 345.652344 595.050781 340.71875 595.789062 335.78125 L 596.046875 334.046875 C 597.101562 326.992188 598.175781 319.941406 599.269531 312.894531 C 600.644531 304.082031 601.910156 295.257812 603.117188 286.421875 C 604.054688 279.570312 604.988281 272.734375 606.25 265.933594 C 608.132812 255.339844 609.597656 244.671875 611.121094 234.027344 C 611.996094 227.964844 612.914062 221.910156 613.859375 215.859375 C 614.59375 211.144531 615.3125 206.429688 616.015625 201.714844 L 616.304688 199.769531 C 616.78125 196.574219 617.253906 193.378906 617.726562 190.183594 C 618.855469 182.5625 620.039062 174.949219 621.265625 167.34375 C 622.023438 162.605469 622.75 157.859375 623.449219 153.113281 L 623.703125 151.394531 C 624.117188 148.601562 624.527344 145.808594 624.929688 143.015625 C 625.730469 137.539062 626.59375 132.078125 627.566406 126.628906 L 627.839844 125.03125 C 628.386719 122.046875 629.085938 119.414062 630.546875 116.714844 " fill-opacity="1" fill-rule="nonzero"/></g></g></g><g clip-path="url(#23c529ac6e)"><g clip-path="url(#39df5427bb)"><g clip-path="url(#9c91e99239)"><path fill="#000000" d="M 330.542969 200.238281 C 334.582031 200.277344 338.617188 200.484375 342.648438 200.675781 C 347.753906 200.90625 352.851562 201.117188 357.960938 201.164062 C 375.078125 201.335938 392.816406 202.296875 409.652344 205.46875 L 411.164062 205.738281 C 419.171875 207.207031 426.515625 209.726562 432.90625 214.941406 C 436.867188 218.710938 439.710938 222.46875 441.363281 227.726562 C 443.484375 235.222656 443.660156 241.449219 441.832031 249.015625 C 440.773438 252.820312 439.320312 256.25 437.5 259.746094 L 436.496094 261.703125 C 432.4375 269.125 426.789062 274.789062 419.753906 279.441406 C 407.03125 287.140625 389.71875 288.03125 375.285156 288.511719 C 361.332031 288.792969 347.457031 287.851562 333.554688 286.785156 C 331.480469 286.625 329.410156 286.476562 327.335938 286.324219 C 316.585938 285.511719 316.585938 285.511719 314.480469 284.863281 L 312.613281 283.207031 C 311.78125 279.019531 312.539062 274.597656 313.199219 270.433594 L 313.476562 268.59375 C 313.777344 266.625 314.082031 264.65625 314.390625 262.691406 C 314.59375 261.375 314.796875 260.058594 314.996094 258.742188 C 315.429688 255.917969 315.867188 253.097656 316.308594 250.277344 C 316.84375 246.847656 317.371094 243.414062 317.890625 239.980469 C 320.484375 222.9375 320.484375 222.9375 321.851562 214.546875 L 322.132812 212.761719 C 322.804688 208.722656 323.460938 204.855469 326.113281 201.613281 C 328.113281 200.371094 328.113281 200.371094 330.542969 200.238281 " fill-opacity="1" fill-rule="nonzero"/></g></g></g><g clip-path="url(#c278e83a94)"><g clip-path="url(#4138ca6c8a)"><g clip-path="url(#6814e0dc57)"><path fill="#737373" d="M 207.078125 63.851562 L 206.757812 65.367188 C 204.992188 66.382812 203.203125 67.359375 201.398438 68.296875 C 195.378906 71.566406 190.46875 75.445312 185.597656 80.230469 L 183.835938 81.949219 C 180.078125 85.816406 177.09375 90.011719 174.339844 94.640625 L 173.191406 96.566406 C 168.28125 105.414062 166.378906 115.347656 164.429688 125.183594 C 164.136719 126.625 163.832031 128.066406 163.515625 129.507812 C 162.019531 136.359375 160.789062 143.246094 159.605469 150.160156 C 158.84375 154.578125 158.015625 158.972656 157.058594 163.355469 C 156.097656 167.761719 155.363281 172.167969 154.734375 176.636719 C 154.351562 179.277344 153.882812 181.894531 153.394531 184.519531 C 152.625 188.710938 151.875 192.90625 151.144531 197.105469 L 150.859375 198.761719 L 149.992188 203.789062 C 148.898438 210.109375 147.804688 216.425781 146.644531 222.734375 C 145.683594 227.980469 144.792969 233.234375 143.925781 238.496094 L 143.457031 241.324219 C 142.292969 248.382812 141.136719 255.441406 139.992188 262.503906 C 139.289062 266.828125 138.578125 271.148438 137.851562 275.46875 C 136.160156 285.488281 134.574219 295.523438 133.089844 305.578125 C 132.332031 310.75 131.46875 315.902344 130.5 321.039062 C 127.316406 338.238281 124.941406 355.628906 122.394531 372.929688 C 120.75 384.058594 118.933594 395.152344 117.0625 406.242188 C 116.359375 410.414062 115.660156 414.585938 114.964844 418.761719 L 114.734375 420.136719 C 113.515625 427.492188 112.34375 434.859375 111.222656 442.230469 C 110.75 445.308594 110.265625 448.382812 109.769531 451.457031 L 109.363281 453.980469 C 109.109375 455.574219 108.851562 457.167969 108.589844 458.765625 C 107.941406 462.796875 107.371094 466.839844 106.878906 470.894531 C 106.566406 473.371094 106.160156 475.828125 105.746094 478.289062 C 104.996094 482.800781 104.269531 487.320312 103.566406 491.839844 L 103.324219 493.402344 C 102.996094 495.484375 102.671875 497.570312 102.351562 499.652344 C 101.457031 505.457031 100.503906 511.242188 99.4375 517.015625 C 98.472656 522.238281 97.589844 527.472656 96.707031 532.710938 L 96.1875 535.789062 C 95.203125 541.613281 94.238281 547.445312 93.296875 553.28125 C 92.863281 555.976562 92.410156 558.671875 91.941406 561.359375 C 87.671875 585.847656 84.550781 608.59375 92.929688 632.574219 C 96.65625 642.332031 102.789062 651.84375 110.886719 658.492188 L 114.027344 660.867188 C 119.078125 664.652344 124.207031 667.921875 129.96875 670.554688 L 127.960938 671.082031 C 126.421875 670.449219 124.925781 669.738281 123.460938 668.949219 L 122.132812 668.238281 C 111.46875 662.339844 102.132812 654.070312 95.742188 643.648438 C 88.527344 630.871094 84.648438 615.335938 84.652344 600.707031 C 84.886719 588.917969 86.679688 577.347656 88.742188 565.757812 C 89.324219 562.484375 89.882812 559.203125 90.449219 555.921875 L 90.800781 553.871094 C 91.75 548.367188 92.648438 542.855469 93.539062 537.34375 C 94.945312 528.671875 96.429688 520.019531 97.960938 511.367188 C 99.152344 504.621094 100.335938 497.875 101.507812 491.125 L 101.839844 489.21875 C 103.476562 479.753906 104.914062 470.269531 106.320312 460.769531 C 107.617188 452.011719 108.96875 443.261719 110.320312 434.515625 L 111.121094 429.332031 C 113.082031 416.601562 115.046875 403.871094 117.261719 391.179688 C 119.402344 378.898438 121.332031 366.585938 123.054688 354.238281 C 125.105469 339.535156 127.3125 324.867188 129.933594 310.257812 C 131.039062 304.035156 131.9375 297.789062 132.816406 291.53125 C 133.71875 285.152344 134.785156 278.808594 135.9375 272.46875 C 136.71875 268.152344 137.378906 263.832031 137.96875 259.480469 C 138.398438 256.390625 138.914062 253.3125 139.441406 250.234375 L 140.109375 246.308594 L 140.449219 244.316406 C 140.761719 242.464844 141.074219 240.613281 141.378906 238.757812 C 142.683594 230.894531 144.054688 223.046875 145.457031 215.199219 C 146.382812 210.003906 147.289062 204.808594 148.179688 199.609375 C 149.761719 190.34375 151.402344 181.085938 153.0625 171.832031 L 153.546875 169.117188 C 163.761719 112.121094 163.761719 112.121094 169.683594 98.726562 L 170.546875 96.714844 C 175.414062 86.25 184.042969 77.382812 193.359375 70.761719 C 197.609375 67.828125 201.925781 64.855469 207.078125 63.851562 M 222.980469 58.964844 C 239.171875 53.347656 258.089844 55.242188 274.851562 56.429688 C 281.625 56.90625 288.402344 57.207031 295.191406 57.335938 C 304.976562 57.527344 314.738281 58.015625 324.511719 58.546875 C 338.34375 59.304688 338.34375 59.304688 352.1875 59.746094 C 358.769531 59.886719 365.34375 60.1875 371.917969 60.476562 C 382.488281 60.9375 393.054688 61.28125 403.628906 61.550781 C 412.953125 61.796875 422.273438 62.164062 431.589844 62.640625 C 438.105469 62.972656 444.609375 63.246094 451.132812 63.347656 C 456.953125 63.449219 462.773438 63.664062 468.589844 63.886719 L 470.160156 63.945312 C 475.226562 64.136719 480.289062 64.34375 485.355469 64.5625 C 494.699219 64.976562 504.042969 65.292969 513.390625 65.566406 C 523.964844 65.878906 534.527344 66.222656 545.089844 66.847656 C 548.464844 67.039062 551.84375 67.199219 555.222656 67.328125 C 576.816406 68.183594 597.769531 69.644531 616.679688 81.1875 C 624.097656 86.25 631.546875 91.949219 637.890625 98.320312 L 638.242188 99.660156 L 636.902344 100.011719 C 635.347656 98.75 633.828125 97.449219 632.34375 96.105469 C 618.519531 83.945312 604.710938 75.816406 586.5 72.019531 C 581.257812 71.128906 576.023438 70.769531 570.71875 70.496094 L 568.363281 70.375 C 557.144531 69.8125 545.917969 69.417969 534.695312 69.011719 C 532.289062 68.921875 529.882812 68.832031 527.476562 68.742188 C 516.484375 68.335938 505.488281 67.9375 494.488281 67.609375 C 488.203125 67.417969 481.933594 67.164062 475.65625 66.773438 C 467.464844 66.300781 459.277344 65.996094 451.074219 65.761719 C 445.6875 65.597656 440.304688 65.414062 434.921875 65.203125 L 433.445312 65.144531 C 428.414062 64.953125 423.382812 64.761719 418.351562 64.5625 C 410.683594 64.265625 403.019531 63.96875 395.351562 63.671875 C 390.339844 63.476562 385.328125 63.28125 380.3125 63.089844 C 358.210938 62.238281 336.109375 61.34375 314.011719 60.34375 C 309.597656 60.144531 305.183594 59.964844 300.765625 59.804688 C 300.292969 59.789062 299.820312 59.773438 299.332031 59.753906 L 293.464844 59.542969 C 287.265625 59.328125 281.070312 59.046875 274.875 58.703125 C 251.59375 57.242188 251.59375 57.242188 228.433594 59.414062 C 227.1875 59.636719 225.929688 59.796875 224.671875 59.953125 Z M 672.03125 130.179688 L 673.371094 129.828125 C 675.039062 131.15625 676.667969 132.535156 678.257812 133.960938 L 679.824219 135.335938 C 681.011719 136.378906 682.195312 137.421875 683.378906 138.46875 C 686.914062 141.585938 690.460938 144.6875 694.011719 147.789062 L 697.867188 151.164062 C 702.132812 154.902344 706.410156 158.628906 710.71875 162.320312 C 715.109375 166.089844 719.375 169.984375 723.609375 173.929688 L 725.050781 175.246094 C 727.695312 177.6875 730.160156 180.292969 732.453125 183.066406 L 732.804688 184.40625 L 731.464844 184.757812 L 730.628906 183.84375 C 724.675781 177.386719 718.597656 171.332031 711.847656 165.714844 C 709.023438 163.363281 706.226562 160.976562 703.429688 158.59375 L 701.566406 157.007812 C 695.847656 152.128906 690.226562 147.144531 684.621094 142.132812 C 680.984375 138.886719 677.320312 135.691406 673.550781 132.597656 L 672.382812 131.519531 Z M 643.175781 104.808594 C 646.597656 106.566406 649.296875 109.054688 652.15625 111.582031 L 655.378906 114.398438 L 657.007812 115.828125 C 659.425781 117.945312 661.851562 120.042969 664.28125 122.140625 L 665.542969 123.230469 C 667.136719 124.609375 668.730469 125.96875 670.40625 127.25 L 671.503906 128.167969 L 671.855469 129.507812 L 669.667969 129.367188 C 668.320312 128.394531 668.320312 128.394531 666.804688 127.054688 L 665.09375 125.554688 L 663.273438 123.925781 L 661.40625 122.277344 C 660.140625 121.15625 658.871094 120.035156 657.605469 118.910156 C 655.875 117.375 654.136719 115.847656 652.390625 114.332031 L 649.367188 111.6875 L 647.945312 110.457031 L 646.644531 109.308594 L 645.511719 108.320312 C 644.46875 107.230469 643.835938 106.152344 643.175781 104.808594 " fill-opacity="1" fill-rule="nonzero"/></g></g></g></svg>